<svg width="24" height="25" viewBox="0 0 24 25" fill="none" xmlns="http://www.w3.org/2000/svg">
<path d="M11.9998 1.17505C5.7373 1.17505 0.674805 6.23755 0.674805 12.5C0.674805 18.7626 5.7373 23.8625 11.9998 23.8625C18.2623 23.8625 23.3623 18.7626 23.3623 12.5C23.3623 6.23755 18.2623 1.17505 11.9998 1.17505ZM11.9998 22.175C6.67481 22.175 2.3623 17.825 2.3623 12.5C2.3623 7.17505 6.67481 2.86255 11.9998 2.86255C17.3248 2.86255 21.6748 7.21255 21.6748 12.5375C21.6748 17.825 17.3248 22.175 11.9998 22.175Z" fill="#FEFE00"/>
<path d="M15.2246 9.01251L10.7621 13.3625L8.73712 11.375C8.39962 11.0375 7.87462 11.075 7.53712 11.375C7.19962 11.7125 7.23712 12.2375 7.53712 12.575L9.93712 14.9C10.1621 15.125 10.4621 15.2375 10.7621 15.2375C11.0621 15.2375 11.3621 15.125 11.5871 14.9L16.4246 10.25C16.7621 9.91251 16.7621 9.38751 16.4246 9.05001C16.0871 8.71251 15.5621 8.71251 15.2246 9.01251Z" fill="#FEFE00"/>
</svg>
