<svg width="24" height="25" viewBox="0 0 24 25" fill="none" xmlns="http://www.w3.org/2000/svg">
<path d="M15.8246 11.6376H12.8246V8.6751C12.8246 8.2251 12.4496 7.8501 11.9621 7.8501C11.5121 7.8501 11.1371 8.2251 11.1371 8.7126V11.6751H8.17461C7.72461 11.6751 7.34961 12.0501 7.34961 12.5376C7.34961 12.9876 7.72461 13.3626 8.21211 13.3626H11.1746V16.3251C11.1746 16.7751 11.5496 17.1501 12.0371 17.1501C12.4871 17.1501 12.8621 16.7751 12.8621 16.2876V13.3251H15.8246C16.2746 13.3251 16.6496 12.9501 16.6496 12.4626C16.6496 12.0126 16.2746 11.6376 15.8246 11.6376Z" fill="#FEFE00"/>
<path d="M11.9998 1.17505C5.7373 1.17505 0.674805 6.23755 0.674805 12.5C0.674805 18.7626 5.7748 23.8625 12.0373 23.8625C18.2998 23.8625 23.3998 18.7626 23.3998 12.5C23.3623 6.23755 18.2623 1.17505 11.9998 1.17505ZM11.9998 22.175C6.67481 22.175 2.3623 17.825 2.3623 12.5C2.3623 7.17505 6.67481 2.86255 11.9998 2.86255C17.3248 2.86255 21.6748 7.17505 21.6748 12.5C21.6748 17.825 17.3248 22.175 11.9998 22.175Z" fill="#FEFE00"/>
</svg>
