<svg width="56" height="56" viewBox="0 0 56 56" fill="none" xmlns="http://www.w3.org/2000/svg">
<ellipse cx="27.7586" cy="27.9726" rx="27.2727" ry="27.5229" fill="#011627"/>
<path d="M26.0417 15.8333H15.8334C15.0599 15.8333 14.318 16.1406 13.771 16.6876C13.224 17.2346 12.9167 17.9765 12.9167 18.75V39.1667C12.9167 39.9402 13.224 40.6821 13.771 41.2291C14.318 41.776 15.0599 42.0833 15.8334 42.0833H36.2501C37.0236 42.0833 37.7655 41.776 38.3125 41.2291C38.8595 40.6821 39.1667 39.9402 39.1667 39.1667V28.9583M36.9792 13.6458C37.5594 13.0657 38.3463 12.7397 39.1667 12.7397C39.9872 12.7397 40.7741 13.0657 41.3542 13.6458C41.9344 14.226 42.2603 15.0129 42.2603 15.8333C42.2603 16.6538 41.9344 17.4407 41.3542 18.0208L27.5001 31.875L21.6667 33.3333L23.1251 27.5L36.9792 13.6458Z" stroke="#FEFE00" stroke-width="3" stroke-linecap="round" stroke-linejoin="round"/>
</svg>
