<svg width="40" height="41" viewBox="0 0 40 41" fill="none" xmlns="http://www.w3.org/2000/svg">
<path d="M14.5625 16.6875H13.1875V15.375C13.1875 14.625 12.5625 13.9375 11.75 13.9375C10.9375 13.9375 10.3125 14.5625 10.3125 15.375V16.6875H8.9375C8.1875 16.6875 7.5 17.3125 7.5 18.125C7.5 18.9375 8.125 19.5625 8.9375 19.5625H10.3125V20.875C10.3125 21.625 10.9375 22.3125 11.75 22.3125C12.5625 22.3125 13.1875 21.6875 13.1875 20.875V19.5625H14.5625C15.3125 19.5625 16 18.9375 16 18.125C16 17.3125 15.3125 16.6875 14.5625 16.6875Z" fill="#800B14"/>
<path d="M26.8125 16.1251C26.875 16.1876 26.875 16.3126 26.9375 16.3751C27 16.4376 27.0625 16.5001 27.125 16.6251C27.1875 16.6876 27.25 16.7501 27.3125 16.8126C27.375 16.8751 27.5 16.8751 27.5625 16.9376C27.625 17.0001 27.75 17.0001 27.8125 17.0001C27.9375 17.0001 28 17.0626 28.0625 17.0626C28.4375 17.0626 28.8125 16.9376 29.0625 16.6251C29.125 16.5626 29.1875 16.5001 29.25 16.3751C29.3125 16.3126 29.3125 16.1876 29.375 16.1251C29.375 16.0626 29.4375 15.9376 29.4375 15.8751C29.4375 15.8126 29.4375 15.6876 29.4375 15.6251C29.4375 15.2501 29.3125 14.8751 29 14.6251C28.6875 14.3126 28.1875 14.1251 27.75 14.2501C27.6875 14.2501 27.5625 14.3126 27.5 14.3126C27.4375 14.3126 27.3125 14.3751 27.25 14.4376C27.1875 14.5001 27.125 14.5626 27.0625 14.6251C27 14.6876 26.9375 14.7501 26.875 14.8751C26.875 14.8751 26.875 14.9376 26.8125 15.0626C26.8125 15.1251 26.75 15.2501 26.75 15.3126C26.75 15.3751 26.75 15.5001 26.75 15.5626C26.75 15.6876 26.75 15.7501 26.75 15.8126C26.75 15.9376 26.8125 16.0001 26.8125 16.1251Z" fill="#800B14"/>
<path d="M26.8125 18.3126C26.8125 18.1876 26.8125 18.1251 26.8125 18.0626C26.8125 17.9376 26.75 17.8751 26.75 17.8126C26.6875 17.7501 26.6875 17.6251 26.625 17.5626C26.5625 17.5001 26.5 17.4376 26.4375 17.3751C26.125 17.0626 25.625 16.8751 25.1875 17.0001C25.0625 17.0001 25 17.0626 24.9375 17.0626C24.875 17.1251 24.75 17.1251 24.6875 17.1876C24.625 17.2501 24.5625 17.3126 24.5 17.3751C24.4375 17.4376 24.375 17.5001 24.3125 17.5626C24.25 17.6251 24.1875 17.7501 24.1875 17.8126C24.125 17.8751 24.125 18.0001 24.125 18.0626C24.125 18.1251 24.125 18.2501 24.125 18.3126C24.125 18.3751 24.125 18.5001 24.125 18.5626C24.125 18.6251 24.1875 18.7501 24.1875 18.8126C24.25 18.8751 24.25 19.0001 24.3125 19.0626C24.375 19.1251 24.4375 19.1876 24.5 19.2501C24.5625 19.3126 24.625 19.3751 24.6875 19.4376C24.75 19.5001 24.875 19.5626 24.9375 19.5626C25 19.6251 25.125 19.6251 25.1875 19.6251C25.25 19.6251 25.375 19.6876 25.4375 19.6876C25.8125 19.6876 26.1875 19.5626 26.4375 19.2501C26.5 19.1876 26.5625 19.1251 26.625 19.0626C26.6875 19.0001 26.75 18.8751 26.75 18.8126C26.8125 18.7501 26.8125 18.6251 26.8125 18.5626C26.75 18.5001 26.8125 18.3751 26.8125 18.3126Z" fill="#800B14"/>
<path d="M29.4375 20.75C29.375 20.6875 29.375 20.5625 29.3125 20.5C29.25 20.4375 29.1875 20.375 29.125 20.3125C28.625 19.8125 27.6875 19.8125 27.125 20.3125C27.0625 20.375 27 20.4375 26.9375 20.5C26.875 20.5625 26.8125 20.6875 26.8125 20.75C26.8125 20.8125 26.75 20.9375 26.75 21C26.75 21.0625 26.75 21.1875 26.75 21.25C26.75 21.3125 26.75 21.4375 26.75 21.5C26.75 21.5625 26.8125 21.6875 26.8125 21.75C26.875 21.8125 26.875 21.9375 26.9375 22C27 22.0625 27.0625 22.125 27.125 22.1875C27.1875 22.25 27.25 22.3125 27.3125 22.375C27.375 22.4375 27.5 22.4375 27.5625 22.5C27.625 22.5625 27.75 22.5625 27.8125 22.5625C27.875 22.5625 28 22.5625 28.0625 22.5625C28.125 22.5625 28.25 22.5625 28.3125 22.5625C28.4375 22.5625 28.5 22.5 28.5625 22.5C28.625 22.5 28.75 22.4375 28.8125 22.375C28.875 22.3125 28.9375 22.25 29 22.1875C29.0625 22.125 29.125 22.0625 29.1875 22C29.25 21.9375 29.25 21.8125 29.3125 21.75C29.375 21.6875 29.375 21.5625 29.375 21.5C29.375 21.4375 29.375 21.3125 29.375 21.25C29.375 21.1875 29.375 21.0625 29.375 21C29.5 20.9375 29.4375 20.8125 29.4375 20.75Z" fill="#800B14"/>
<path d="M29.8125 17.3125C29.5625 17.5625 29.375 17.9375 29.375 18.3125C29.375 18.6875 29.5 19.0625 29.8125 19.3125C30.125 19.5625 30.4375 19.75 30.8125 19.75C31.1875 19.75 31.5625 19.625 31.8125 19.3125C32.0625 19 32.25 18.6875 32.25 18.3125C32.25 17.9375 32.125 17.5625 31.8125 17.3125C31.3125 16.8125 30.375 16.8125 29.8125 17.3125Z" fill="#800B14"/>
<path d="M39.0623 24.25L36.7498 15C35.7498 11.125 32.3123 8.375 28.3123 8.375H11.7498C7.7498 8.375 4.2498 11.0625 3.3123 15L0.937299 24.25C0.437299 26.25 0.874799 28.375 2.1248 30C3.3748 31.625 5.3123 32.5625 7.4373 32.5625C10.1248 32.5625 12.5623 30.9375 13.6248 28.5L14.3123 26.9375H25.7498L26.4373 28.5C27.4998 31 29.9373 32.5625 32.6248 32.5625C34.6873 32.5625 36.6248 31.625 37.9373 30C39.1248 28.375 39.5623 26.25 39.0623 24.25ZM35.6248 28.25C34.8748 29.1875 33.7498 29.75 32.5623 29.75C30.9998 29.75 29.5623 28.8125 28.9998 27.375L27.9998 25C27.7498 24.5 27.2498 24.125 26.6873 24.125H13.3748C12.8123 24.125 12.3123 24.4375 12.0623 25L11.0623 27.375C10.4373 28.8125 9.0623 29.75 7.4998 29.75C6.2498 29.75 5.1248 29.25 4.3748 28.25C3.6248 27.3125 3.3748 26.0625 3.6873 24.9375L5.9998 15.6875C6.6873 13.0625 8.9998 11.1875 11.7498 11.1875H28.2498C30.9373 11.1875 33.3123 13 33.9998 15.6875L36.3123 24.9375C36.6248 26.125 36.3748 27.3125 35.6248 28.25Z" fill="#800B14"/>
</svg>
