<svg width="23" height="23" viewBox="0 0 23 23" fill="none" xmlns="http://www.w3.org/2000/svg">
<path d="M11.325 0C5.0625 0 0 5.0625 0 11.325C0 17.5875 5.0625 22.6875 11.325 22.6875C17.5875 22.6875 22.6875 17.5875 22.6875 11.325C22.6875 5.0625 17.5875 0 11.325 0ZM11.325 21C6 21 1.6875 16.65 1.6875 11.325C1.6875 6 6 1.6875 11.325 1.6875C16.65 1.6875 21 6.0375 21 11.3625C21 16.65 16.65 21 11.325 21Z" fill="#FEFE00"/>
<path d="M12 3.86225C10.9125 3.67475 9.78752 3.97475 8.96252 4.68725C8.13752 5.39975 7.65002 6.41225 7.65002 7.53725C7.65002 7.94975 7.72502 8.36225 7.87502 8.77475C8.02502 9.22475 8.51252 9.44975 8.96252 9.29975C9.41252 9.14975 9.63752 8.66225 9.48752 8.21225C9.41252 7.98725 9.37502 7.76225 9.37502 7.53725C9.37502 6.93725 9.63752 6.37475 10.0875 5.99975C10.5375 5.62475 11.1375 5.43725 11.775 5.54975C12.5625 5.69975 13.2375 6.37475 13.3875 7.16225C13.5375 8.09975 13.05 9.03725 12.1875 9.41225C11.2125 9.82475 10.575 10.7997 10.575 11.9247V14.2497C10.575 14.6997 10.95 15.1122 11.4375 15.1122C11.8875 15.1122 12.3 14.7372 12.3 14.2497V11.9247C12.3 11.5122 12.525 11.1372 12.8625 10.9872C14.475 10.3122 15.4125 8.62475 15.1125 6.89975C14.7 5.36225 13.5 4.12475 12 3.86225Z" fill="#FEFE00"/>
<path d="M11.3625 16.5H11.25C10.8 16.5 10.3875 16.875 10.3875 17.3625C10.3875 17.85 10.7625 18.225 11.25 18.225H11.3625C11.8125 18.225 12.1875 17.85 12.1875 17.3625C12.1875 16.875 11.85 16.5 11.3625 16.5Z" fill="#FEFE00"/>
</svg>
