<svg width="22" height="24" viewBox="0 0 22 24" fill="none" xmlns="http://www.w3.org/2000/svg">
<path d="M21.0899 11.1375C20.9416 10.875 20.7192 10.6875 20.4598 10.5375L3.37331 0.862462C3.0768 0.712462 2.74322 0.637462 2.40965 0.674962C2.07607 0.712462 1.77956 0.824962 1.52011 1.04996C1.26067 1.27496 1.07535 1.57496 1.00122 1.87496C0.890027 2.21246 0.927091 2.54996 1.03828 2.88746L4.22578 12L1.03828 21.1125C0.927091 21.45 0.927091 21.7875 1.00122 22.0875C1.07535 22.425 1.26067 22.6875 1.52011 22.9125C1.77956 23.1375 2.07607 23.25 2.40965 23.2875C2.44671 23.2875 2.52084 23.2875 2.5579 23.2875C2.81735 23.2875 3.11386 23.2125 3.37331 23.0625L20.4598 13.3875C20.7192 13.2375 20.9416 13.05 21.0899 12.7875C21.2381 12.525 21.3123 12.225 21.3123 11.9625C21.3123 11.7 21.2381 11.4 21.0899 11.1375ZM2.63203 2.36246L18.1248 11.1375H5.70834L2.63203 2.36246ZM2.63203 21.6375L5.7454 12.8625H18.1618L2.63203 21.6375Z" fill="#FEFE00"/>
</svg>
