<svg width="16" height="16" viewBox="0 0 16 16" fill="none" xmlns="http://www.w3.org/2000/svg">
<g clip-path="url(#clip0_468_751)">
<path d="M6.40015 1.40796C7.81705 1.40796 9.14963 1.9265 10.1863 2.86694L10.3894 3.0603L10.3904 3.06226C12.3938 5.04206 12.5619 8.18211 10.9558 10.3787L10.7693 10.6335L11.0154 10.8337L15.1404 14.1833L15.1736 14.2166C15.2306 14.2839 15.2443 14.3802 15.1951 14.4714L15.1648 14.5164C15.1286 14.5615 15.0744 14.5916 14.9998 14.5916C14.9805 14.5915 14.9569 14.5872 14.9314 14.5779L14.8503 14.533L10.6843 11.1658L10.4626 10.9861L10.2507 11.1785C9.18459 12.1498 7.83873 12.6912 6.40015 12.6912C4.98328 12.6912 3.65065 12.1735 2.61401 11.2332L2.41089 11.0388C0.284791 8.91251 0.218234 5.4782 2.21167 3.27026L2.41089 3.0603C3.47354 1.99775 4.8889 1.40796 6.40015 1.40796ZM6.40015 1.86694C5.0117 1.86694 3.72768 2.40158 2.74097 3.38745C0.771403 5.3311 0.712363 8.4767 2.55542 10.5164L2.73901 10.7107C3.72594 11.6976 5.01092 12.2332 6.40015 12.2332C7.78666 12.2332 9.09911 11.6996 10.0642 10.7078L10.0632 10.7068C12.0283 8.76264 12.0869 5.62078 10.2449 3.58276L10.0613 3.3894C9.07435 2.40247 7.78937 1.86694 6.40015 1.86694Z" fill="#FEFE00" stroke="#FEFE00" stroke-width="0.666667"/>
</g>
<defs>
<clipPath id="clip0_468_751">
<rect width="16" height="16" fill="white"/>
</clipPath>
</defs>
</svg>
