<svg width="24" height="25" viewBox="0 0 24 25" fill="none" xmlns="http://www.w3.org/2000/svg">
<path d="M18.3377 3.79995H15.4502V3.16245C15.4502 2.03745 14.5502 1.13745 13.4252 1.13745H10.5377C9.4127 1.13745 8.5127 2.03745 8.5127 3.16245V3.79995H5.6252C4.5377 3.79995 3.6377 4.69995 3.6377 5.78745V6.91245C3.6377 7.73745 4.1252 8.41245 4.8377 8.71245L5.4377 21.6874C5.5127 22.9249 6.4877 23.8624 7.7252 23.8624H16.1627C17.4002 23.8624 18.4127 22.8874 18.4502 21.6874L19.1252 8.67495C19.8377 8.37495 20.3252 7.66245 20.3252 6.87495V5.74995C20.3252 4.69995 19.4252 3.79995 18.3377 3.79995ZM10.2377 3.16245C10.2377 2.97495 10.3877 2.82495 10.5752 2.82495H13.4627C13.6502 2.82495 13.8002 2.97495 13.8002 3.16245V3.79995H10.2752V3.16245H10.2377ZM5.3627 5.78745C5.3627 5.63745 5.4752 5.48745 5.6627 5.48745H18.3377C18.4877 5.48745 18.6377 5.59995 18.6377 5.78745V6.91245C18.6377 7.06245 18.5252 7.21245 18.3377 7.21245H5.6627C5.5127 7.21245 5.3627 7.09995 5.3627 6.91245V5.78745ZM16.2002 22.1749H7.8002C7.4627 22.1749 7.2002 21.9124 7.2002 21.6124L6.6002 8.89995H17.4377L16.8377 21.6124C16.8002 21.9124 16.5377 22.1749 16.2002 22.1749Z" fill="#7B7B43"/>
<path d="M12.0002 12.1624C11.5502 12.1624 11.1377 12.5374 11.1377 13.0249V18.8374C11.1377 19.2874 11.5127 19.6999 12.0002 19.6999C12.4502 19.6999 12.8627 19.3249 12.8627 18.8374V12.9874C12.8627 12.5374 12.4502 12.1624 12.0002 12.1624Z" fill="#7B7B43"/>
<path d="M15.4875 12.8749C15.0375 12.8374 14.625 13.2124 14.5875 13.6624L14.3625 17.9749C14.325 18.4249 14.7 18.8374 15.15 18.8749H15.1875C15.6375 18.8749 16.0125 18.5374 16.0125 18.0874L16.2375 13.7749C16.3125 13.2874 15.9375 12.9124 15.4875 12.8749Z" fill="#7B7B43"/>
<path d="M8.47515 12.8749C8.02515 12.9124 7.65015 13.2874 7.68765 13.7749L7.95015 18.1249C7.98765 18.5749 8.36265 18.9124 8.77515 18.9124H8.81265C9.26265 18.8749 9.63765 18.4999 9.60015 18.0124L9.37515 13.6624C9.33765 13.2124 8.92515 12.8374 8.47515 12.8749Z" fill="#7B7B43"/>
</svg>
