<svg width="27" height="26" viewBox="0 0 27 26" fill="none" xmlns="http://www.w3.org/2000/svg">
<path d="M23.25 25.2689H3.74995C2.3687 25.2689 1.2312 24.1314 1.2312 22.7502V3.2502C1.2312 1.86895 2.3687 0.731445 3.74995 0.731445H23.25C24.6312 0.731445 25.7687 1.86895 25.7687 3.2502V22.7502C25.7687 24.1314 24.6312 25.2689 23.25 25.2689ZM3.74995 2.51895C3.3437 2.51895 3.0187 2.84395 3.0187 3.2502V22.7502C3.0187 23.1564 3.3437 23.4814 3.74995 23.4814H23.25C23.6562 23.4814 23.9812 23.1564 23.9812 22.7502V3.2502C23.9812 2.84395 23.6562 2.51895 23.25 2.51895H3.74995Z" fill="#FEFE00"/>
<path d="M13.6218 18.9315C13.378 18.9315 13.1343 18.8503 12.9718 18.6472L8.58428 14.3003C8.21865 13.9347 8.21865 13.3659 8.58428 13.0003C8.9499 12.6347 9.51865 12.6347 9.88428 13.0003L12.6874 15.8034V7.88154C12.6874 7.39404 13.0937 6.98779 13.5812 6.98779C14.0687 6.98779 14.4749 7.39404 14.4749 7.88154V15.8034L17.4405 12.8378C17.8062 12.4722 18.3749 12.4722 18.7405 12.8378C19.1062 13.2034 19.1062 13.7722 18.7405 14.1378L14.2718 18.6472C14.0687 18.8503 13.8655 18.9315 13.6218 18.9315Z" fill="#FEFE00"/>
</svg>
