<svg width="13" height="21" viewBox="0 0 13 21" fill="none" xmlns="http://www.w3.org/2000/svg">
<path d="M0.899414 0.899414C1.3988 0.400025 2.16974 0.36884 2.70312 0.805664L2.80664 0.899414L2.80957 0.902344L11.2852 9.52734H11.2842C11.8132 10.0592 11.8128 10.8957 11.2842 11.4277L11.2852 11.4287L2.80957 20.0537L2.80664 20.0566C2.58097 20.2823 2.23445 20.4657 1.85352 20.4658C1.4969 20.4658 1.20135 20.3396 0.94043 20.1309L0.918945 20.1133L0.899414 20.0938C0.367043 19.5611 0.367042 18.7202 0.899414 18.1875L8.42773 10.4785L0.896484 2.80371L0.897461 2.80273C0.367726 2.26982 0.367662 1.43117 0.899414 0.899414Z" fill="#FEFE00" stroke="#FEFE00"/>
</svg>
